<mxfile host="app.diagrams.net" modified="2023-12-06T21:51:35.677Z" agent="Mozilla/5.0 (Windows NT 10.0; Win64; x64) AppleWebKit/537.36 (KHTML, like Gecko) Chrome/119.0.0.0 Safari/537.36" etag="WhuupkfMe7-gJjaOvexq" version="22.1.7" type="github">
  <diagram id="C5RBs43oDa-KdzZeNtuy" name="Page-1">
    <mxGraphModel dx="1281" dy="518" grid="1" gridSize="10" guides="1" tooltips="1" connect="1" arrows="1" fold="1" page="1" pageScale="1" pageWidth="827" pageHeight="1169" math="0" shadow="0">
      <root>
        <mxCell id="WIyWlLk6GJQsqaUBKTNV-0" />
        <mxCell id="WIyWlLk6GJQsqaUBKTNV-1" parent="WIyWlLk6GJQsqaUBKTNV-0" />
        <mxCell id="WIyWlLk6GJQsqaUBKTNV-2" value="" style="rounded=0;html=1;jettySize=auto;orthogonalLoop=1;fontSize=11;endArrow=block;endFill=0;endSize=8;strokeWidth=1;shadow=0;labelBackgroundColor=none;edgeStyle=orthogonalEdgeStyle;entryX=0.5;entryY=0;entryDx=0;entryDy=0;" parent="WIyWlLk6GJQsqaUBKTNV-1" source="WIyWlLk6GJQsqaUBKTNV-3" target="zohzB5hVQK151VsvQyGE-7" edge="1">
          <mxGeometry relative="1" as="geometry" />
        </mxCell>
        <mxCell id="WIyWlLk6GJQsqaUBKTNV-3" value="Create array of search results&lt;br&gt;Derive regular expression from search term" style="rounded=1;whiteSpace=wrap;html=1;fontSize=12;glass=0;strokeWidth=1;shadow=0;" parent="WIyWlLk6GJQsqaUBKTNV-1" vertex="1">
          <mxGeometry x="117" y="80" width="245" height="40" as="geometry" />
        </mxCell>
        <mxCell id="zohzB5hVQK151VsvQyGE-40" value="Yes" style="rounded=0;html=1;jettySize=auto;orthogonalLoop=1;fontSize=11;endArrow=block;endFill=0;endSize=8;strokeWidth=1;shadow=0;labelBackgroundColor=none;edgeStyle=orthogonalEdgeStyle;exitX=0.5;exitY=1;exitDx=0;exitDy=0;entryX=0;entryY=0.5;entryDx=0;entryDy=0;" edge="1" parent="WIyWlLk6GJQsqaUBKTNV-1" source="zohzB5hVQK151VsvQyGE-9" target="zohzB5hVQK151VsvQyGE-65">
          <mxGeometry x="0.3333" y="20" relative="1" as="geometry">
            <mxPoint as="offset" />
            <mxPoint x="260" y="600" as="sourcePoint" />
            <mxPoint x="240" y="900" as="targetPoint" />
          </mxGeometry>
        </mxCell>
        <mxCell id="zohzB5hVQK151VsvQyGE-42" value="No" style="rounded=0;html=1;jettySize=auto;orthogonalLoop=1;fontSize=11;endArrow=block;endFill=0;endSize=8;strokeWidth=1;shadow=0;labelBackgroundColor=none;edgeStyle=orthogonalEdgeStyle;exitX=1;exitY=0.5;exitDx=0;exitDy=0;" edge="1" parent="WIyWlLk6GJQsqaUBKTNV-1" source="zohzB5hVQK151VsvQyGE-9">
          <mxGeometry x="0.3333" y="20" relative="1" as="geometry">
            <mxPoint as="offset" />
            <mxPoint x="300" y="590" as="sourcePoint" />
            <mxPoint x="400" y="490" as="targetPoint" />
          </mxGeometry>
        </mxCell>
        <mxCell id="zohzB5hVQK151VsvQyGE-6" value="for each excerpt of book" style="text;html=1;strokeColor=none;fillColor=none;align=center;verticalAlign=middle;whiteSpace=wrap;rounded=0;" vertex="1" parent="WIyWlLk6GJQsqaUBKTNV-1">
          <mxGeometry x="80.5" y="160" width="133.63636363636365" height="30" as="geometry" />
        </mxCell>
        <mxCell id="zohzB5hVQK151VsvQyGE-7" value="Get ISBN&lt;br&gt;Get array of lines" style="rounded=1;whiteSpace=wrap;html=1;fontSize=12;glass=0;strokeWidth=1;shadow=0;" vertex="1" parent="WIyWlLk6GJQsqaUBKTNV-1">
          <mxGeometry x="185.75" y="200" width="107.5" height="40" as="geometry" />
        </mxCell>
        <mxCell id="zohzB5hVQK151VsvQyGE-30" value="" style="rounded=0;html=1;jettySize=auto;orthogonalLoop=1;fontSize=11;endArrow=block;endFill=0;endSize=8;strokeWidth=1;shadow=0;labelBackgroundColor=none;edgeStyle=orthogonalEdgeStyle;entryX=0.5;entryY=0;entryDx=0;entryDy=0;exitX=0.5;exitY=1;exitDx=0;exitDy=0;" edge="1" parent="WIyWlLk6GJQsqaUBKTNV-1" source="zohzB5hVQK151VsvQyGE-7" target="zohzB5hVQK151VsvQyGE-29">
          <mxGeometry relative="1" as="geometry">
            <mxPoint x="317" y="310" as="sourcePoint" />
            <mxPoint x="317" y="390" as="targetPoint" />
          </mxGeometry>
        </mxCell>
        <mxCell id="zohzB5hVQK151VsvQyGE-25" value="for each line &lt;i&gt;j&lt;/i&gt;" style="text;html=1;strokeColor=none;fillColor=none;align=center;verticalAlign=middle;whiteSpace=wrap;rounded=0;" vertex="1" parent="WIyWlLk6GJQsqaUBKTNV-1">
          <mxGeometry x="80.5" y="280" width="79.5" height="30" as="geometry" />
        </mxCell>
        <mxCell id="zohzB5hVQK151VsvQyGE-29" value="Get line&lt;br&gt;Get text of line &lt;i&gt;j&lt;/i&gt;" style="rounded=1;whiteSpace=wrap;html=1;fontSize=12;glass=0;strokeWidth=1;shadow=0;" vertex="1" parent="WIyWlLk6GJQsqaUBKTNV-1">
          <mxGeometry x="187.5" y="320" width="105.5" height="40" as="geometry" />
        </mxCell>
        <mxCell id="zohzB5hVQK151VsvQyGE-9" value="regular expression derived from search term matches text of line &lt;i&gt;j&lt;/i&gt;?" style="rhombus;whiteSpace=wrap;html=1;shadow=0;fontFamily=Helvetica;fontSize=12;align=center;strokeWidth=1;spacing=6;spacingTop=-4;" vertex="1" parent="WIyWlLk6GJQsqaUBKTNV-1">
          <mxGeometry x="133.5" y="400" width="213.5" height="180" as="geometry" />
        </mxCell>
        <mxCell id="zohzB5hVQK151VsvQyGE-32" value="" style="rounded=0;html=1;jettySize=auto;orthogonalLoop=1;fontSize=11;endArrow=block;endFill=0;endSize=8;strokeWidth=1;shadow=0;labelBackgroundColor=none;edgeStyle=orthogonalEdgeStyle;exitX=0.5;exitY=1;exitDx=0;exitDy=0;entryX=0.5;entryY=0;entryDx=0;entryDy=0;" edge="1" parent="WIyWlLk6GJQsqaUBKTNV-1" source="zohzB5hVQK151VsvQyGE-29" target="zohzB5hVQK151VsvQyGE-9">
          <mxGeometry relative="1" as="geometry">
            <mxPoint x="327" y="380" as="sourcePoint" />
            <mxPoint x="237" y="400" as="targetPoint" />
          </mxGeometry>
        </mxCell>
        <mxCell id="zohzB5hVQK151VsvQyGE-45" value="text of line &lt;i&gt;j&lt;/i&gt;&amp;nbsp;ends with &#39;-&#39;?" style="rhombus;whiteSpace=wrap;html=1;shadow=0;fontFamily=Helvetica;fontSize=12;align=center;strokeWidth=1;spacing=6;spacingTop=-4;" vertex="1" parent="WIyWlLk6GJQsqaUBKTNV-1">
          <mxGeometry x="400" y="420" width="160" height="140" as="geometry" />
        </mxCell>
        <mxCell id="zohzB5hVQK151VsvQyGE-46" value="Yes" style="rounded=0;html=1;jettySize=auto;orthogonalLoop=1;fontSize=11;endArrow=block;endFill=0;endSize=8;strokeWidth=1;shadow=0;labelBackgroundColor=none;edgeStyle=orthogonalEdgeStyle;exitX=0.5;exitY=1;exitDx=0;exitDy=0;" edge="1" parent="WIyWlLk6GJQsqaUBKTNV-1" source="zohzB5hVQK151VsvQyGE-45">
          <mxGeometry x="0.3333" y="20" relative="1" as="geometry">
            <mxPoint as="offset" />
            <mxPoint x="408" y="590" as="sourcePoint" />
            <mxPoint x="480" y="600" as="targetPoint" />
          </mxGeometry>
        </mxCell>
        <mxCell id="zohzB5hVQK151VsvQyGE-47" value="Derive array of tokens of line &lt;i&gt;j&lt;/i&gt;&lt;br&gt;Get last token of line &lt;i&gt;j&lt;/i&gt;" style="rounded=1;whiteSpace=wrap;html=1;fontSize=12;glass=0;strokeWidth=1;shadow=0;" vertex="1" parent="WIyWlLk6GJQsqaUBKTNV-1">
          <mxGeometry x="390" y="600" width="180" height="40" as="geometry" />
        </mxCell>
        <mxCell id="zohzB5hVQK151VsvQyGE-49" value="" style="rounded=0;html=1;jettySize=auto;orthogonalLoop=1;fontSize=11;endArrow=block;endFill=0;endSize=8;strokeWidth=1;shadow=0;labelBackgroundColor=none;edgeStyle=orthogonalEdgeStyle;exitX=0.5;exitY=1;exitDx=0;exitDy=0;" edge="1" parent="WIyWlLk6GJQsqaUBKTNV-1" source="zohzB5hVQK151VsvQyGE-47">
          <mxGeometry relative="1" as="geometry">
            <mxPoint x="640" y="565" as="sourcePoint" />
            <mxPoint x="480" y="680" as="targetPoint" />
          </mxGeometry>
        </mxCell>
        <mxCell id="zohzB5hVQK151VsvQyGE-51" value="line &lt;i&gt;j&lt;/i&gt;&amp;nbsp;is last line?" style="rhombus;whiteSpace=wrap;html=1;shadow=0;fontFamily=Helvetica;fontSize=12;align=center;strokeWidth=1;spacing=6;spacingTop=-4;" vertex="1" parent="WIyWlLk6GJQsqaUBKTNV-1">
          <mxGeometry x="425" y="680" width="110" height="100" as="geometry" />
        </mxCell>
        <mxCell id="zohzB5hVQK151VsvQyGE-53" value="No" style="rounded=0;html=1;jettySize=auto;orthogonalLoop=1;fontSize=11;endArrow=block;endFill=0;endSize=8;strokeWidth=1;shadow=0;labelBackgroundColor=none;edgeStyle=orthogonalEdgeStyle;exitX=1;exitY=0.5;exitDx=0;exitDy=0;" edge="1" parent="WIyWlLk6GJQsqaUBKTNV-1" source="zohzB5hVQK151VsvQyGE-51">
          <mxGeometry x="0.3333" y="20" relative="1" as="geometry">
            <mxPoint as="offset" />
            <mxPoint x="357" y="380" as="sourcePoint" />
            <mxPoint x="720" y="730" as="targetPoint" />
          </mxGeometry>
        </mxCell>
        <mxCell id="zohzB5hVQK151VsvQyGE-54" value="Yes" style="rounded=0;html=1;jettySize=auto;orthogonalLoop=1;fontSize=11;endArrow=block;endFill=0;endSize=8;strokeWidth=1;shadow=0;labelBackgroundColor=none;edgeStyle=orthogonalEdgeStyle;exitX=0.5;exitY=1;exitDx=0;exitDy=0;" edge="1" parent="WIyWlLk6GJQsqaUBKTNV-1" source="zohzB5hVQK151VsvQyGE-51">
          <mxGeometry x="0.3333" y="20" relative="1" as="geometry">
            <mxPoint as="offset" />
            <mxPoint x="490" y="490" as="sourcePoint" />
            <mxPoint x="480" y="840" as="targetPoint" />
          </mxGeometry>
        </mxCell>
        <mxCell id="zohzB5hVQK151VsvQyGE-60" value="Derive regular expression derived from search term with optional syllables" style="rounded=1;whiteSpace=wrap;html=1;fontSize=12;glass=0;strokeWidth=1;shadow=0;" vertex="1" parent="WIyWlLk6GJQsqaUBKTNV-1">
          <mxGeometry x="273.75" y="840" width="412.5" height="40" as="geometry" />
        </mxCell>
        <mxCell id="zohzB5hVQK151VsvQyGE-62" value="" style="rounded=0;html=1;jettySize=auto;orthogonalLoop=1;fontSize=11;endArrow=block;endFill=0;endSize=8;strokeWidth=1;shadow=0;labelBackgroundColor=none;edgeStyle=orthogonalEdgeStyle;exitX=0.5;exitY=1;exitDx=0;exitDy=0;" edge="1" parent="WIyWlLk6GJQsqaUBKTNV-1" source="zohzB5hVQK151VsvQyGE-60">
          <mxGeometry relative="1" as="geometry">
            <mxPoint x="490" y="898" as="sourcePoint" />
            <mxPoint x="480" y="920" as="targetPoint" />
          </mxGeometry>
        </mxCell>
        <mxCell id="zohzB5hVQK151VsvQyGE-63" value="regular expression derived from search term with optional syllables matches last token of line &lt;i&gt;j&lt;/i&gt;?" style="rhombus;whiteSpace=wrap;html=1;shadow=0;fontFamily=Helvetica;fontSize=12;align=center;strokeWidth=1;spacing=6;spacingTop=-4;" vertex="1" parent="WIyWlLk6GJQsqaUBKTNV-1">
          <mxGeometry x="372.5" y="920" width="215" height="200" as="geometry" />
        </mxCell>
        <mxCell id="zohzB5hVQK151VsvQyGE-64" value="Yes" style="rounded=0;html=1;jettySize=auto;orthogonalLoop=1;fontSize=11;endArrow=block;endFill=0;endSize=8;strokeWidth=1;shadow=0;labelBackgroundColor=none;edgeStyle=orthogonalEdgeStyle;exitX=0.5;exitY=1;exitDx=0;exitDy=0;" edge="1" parent="WIyWlLk6GJQsqaUBKTNV-1">
          <mxGeometry y="20" relative="1" as="geometry">
            <mxPoint as="offset" />
            <mxPoint x="480" y="1120" as="sourcePoint" />
            <mxPoint x="480" y="1160" as="targetPoint" />
          </mxGeometry>
        </mxCell>
        <mxCell id="zohzB5hVQK151VsvQyGE-65" value="add search result to array of search results" style="rounded=1;whiteSpace=wrap;html=1;fontSize=12;glass=0;strokeWidth=1;shadow=0;" vertex="1" parent="WIyWlLk6GJQsqaUBKTNV-1">
          <mxGeometry x="360" y="1160" width="240" height="40" as="geometry" />
        </mxCell>
        <mxCell id="zohzB5hVQK151VsvQyGE-68" value="Get line &lt;i&gt;j + 1&lt;/i&gt;&lt;br&gt;Get text of line &lt;i&gt;j + 1&lt;/i&gt;&lt;br&gt;Derive array of tokens of line &lt;i&gt;j + 1&lt;/i&gt;&lt;br&gt;Get first token of line &lt;i&gt;j + 1&lt;/i&gt;&lt;br&gt;Derive last token of line &lt;i&gt;j&lt;/i&gt;&amp;nbsp;plus first token of line &lt;i&gt;j + 1&lt;/i&gt;" style="rounded=1;whiteSpace=wrap;html=1;fontSize=12;glass=0;strokeWidth=1;shadow=0;" vertex="1" parent="WIyWlLk6GJQsqaUBKTNV-1">
          <mxGeometry x="720" y="685" width="290" height="90" as="geometry" />
        </mxCell>
        <mxCell id="zohzB5hVQK151VsvQyGE-70" value="regular expression derived from search term matches last token of line &lt;i&gt;j&lt;/i&gt;&amp;nbsp;plus first token of line &lt;i&gt;j + 1&lt;/i&gt;?" style="rhombus;whiteSpace=wrap;html=1;shadow=0;fontFamily=Helvetica;fontSize=12;align=center;strokeWidth=1;spacing=6;spacingTop=-4;" vertex="1" parent="WIyWlLk6GJQsqaUBKTNV-1">
          <mxGeometry x="757.5" y="840" width="215" height="200" as="geometry" />
        </mxCell>
        <mxCell id="zohzB5hVQK151VsvQyGE-71" value="" style="rounded=0;html=1;jettySize=auto;orthogonalLoop=1;fontSize=11;endArrow=block;endFill=0;endSize=8;strokeWidth=1;shadow=0;labelBackgroundColor=none;edgeStyle=orthogonalEdgeStyle;exitX=0.5;exitY=1;exitDx=0;exitDy=0;entryX=0.5;entryY=0;entryDx=0;entryDy=0;" edge="1" parent="WIyWlLk6GJQsqaUBKTNV-1" source="zohzB5hVQK151VsvQyGE-68" target="zohzB5hVQK151VsvQyGE-70">
          <mxGeometry relative="1" as="geometry">
            <mxPoint x="870" y="790" as="sourcePoint" />
            <mxPoint x="870" y="830" as="targetPoint" />
          </mxGeometry>
        </mxCell>
        <mxCell id="zohzB5hVQK151VsvQyGE-72" value="Yes" style="rounded=0;html=1;jettySize=auto;orthogonalLoop=1;fontSize=11;endArrow=block;endFill=0;endSize=8;strokeWidth=1;shadow=0;labelBackgroundColor=none;edgeStyle=orthogonalEdgeStyle;exitX=0.5;exitY=1;exitDx=0;exitDy=0;entryX=1;entryY=0.5;entryDx=0;entryDy=0;" edge="1" parent="WIyWlLk6GJQsqaUBKTNV-1" target="zohzB5hVQK151VsvQyGE-65">
          <mxGeometry x="0.3572" y="-20" relative="1" as="geometry">
            <mxPoint as="offset" />
            <mxPoint x="864.5" y="1040" as="sourcePoint" />
            <mxPoint x="800" y="1150" as="targetPoint" />
            <Array as="points">
              <mxPoint x="865" y="1180" />
            </Array>
          </mxGeometry>
        </mxCell>
      </root>
    </mxGraphModel>
  </diagram>
</mxfile>
